<svg xmlns="http://www.w3.org/2000/svg" xmlns:svg="http://www.w3.org/2000/svg" id="svg1" width="210mm" height="297mm" version="1.1" viewBox="0 0 210 297" xml:space="preserve"><g id="layer1"><g id="g262144" transform="matrix(0.6192159,0,0,0.6192159,42.978615,14.547614)" style="fill:teal"><path style="fill:teal;fill-opacity:1" id="path262147" d="m 43.928471,51.997787 c 0.0282,-0.01128 0.06189,-0.0099 0.07487,0.0031 0.01298,0.01298 -0.01009,0.02221 -0.05127,0.02052 -0.04551,-0.0019 -0.05476,-0.01113 -0.0236,-0.0236 z m -8.459473,-0.627608 c 1.520019,-0.0057 4.007324,-0.0057 5.527344,0 1.520019,0.0057 0.276367,0.01029 -2.763672,0.01029 -3.040039,0 -4.283692,-0.0046 -2.763672,-0.01029 z M 30.852941,50.36106 c 0.0019,-0.04551 0.01113,-0.05476 0.0236,-0.0236 0.01128,0.0282 0.0099,0.06189 -0.0031,0.07487 -0.01298,0.01298 -0.02221,-0.01009 -0.02052,-0.05127 z m 1.537963,-2.906901 c 0,-0.762696 0.0052,-1.074707 0.01163,-0.69336 0.0064,0.381348 0.0064,1.005372 0,1.386719 -0.0064,0.381348 -0.01163,0.06934 -0.01163,-0.693359 z m 4.682675,0.0879 c 1.285352,-0.0057 3.377148,-0.0057 4.648438,3e-6 1.271289,0.0057 0.219637,0.01039 -2.337003,0.01039 -2.556641,-1e-6 -3.596787,-0.0047 -2.311435,-0.01039 z M 34.96281,40.432967 c 0.145913,-0.0075 0.374429,-0.0075 0.507812,1.25e-4 0.133384,0.0076 0.014,0.01377 -0.265296,0.0137 -0.279297,-6.8e-5 -0.388429,-0.0063 -0.242516,-0.01383 z m 4.217125,-0.273726 c 1.562989,-0.0057 4.120606,-0.0057 5.683594,0 1.562988,0.0057 0.28418,0.01028 -2.841797,0.01028 -3.125976,0 -4.404785,-0.0046 -2.841797,-0.01028 z m -4.759978,-0.732426 c 6.1e-5,-0.300781 0.0062,-0.418665 0.01363,-0.261963 0.0074,0.156702 0.0074,0.402796 -1.1e-4,0.546875 -0.0075,0.14408 -0.01358,0.01587 -0.01352,-0.284912 z m 0.853728,-1.024072 c 0.05908,-0.009 0.155762,-0.009 0.214844,0 0.05908,0.0089 0.01074,0.01627 -0.107422,0.01627 -0.118164,0 -0.166504,-0.0073 -0.107422,-0.01627 z M 43.694096,36.5681 c 0.0282,-0.01128 0.06189,-0.0099 0.07487,0.0031 0.01298,0.01298 -0.01009,0.02221 -0.05127,0.02052 -0.04551,-0.0019 -0.05476,-0.01113 -0.0236,-0.0236 z m 3.013802,-0.822926 -0.213509,-0.224609 0.224609,0.213509 c 0.123535,0.117431 0.224609,0.218505 0.224609,0.22461 0,0.02899 -0.03735,-0.0048 -0.235709,-0.21351 z m -1.152847,-0.253906 -0.154412,-0.166015 0.166015,0.154412 c 0.09131,0.08493 0.166016,0.159633 0.166016,0.166015 0,0.02955 -0.03402,-1.9e-5 -0.177619,-0.154412 z M 30.852941,35.20481 c 0.0019,-0.04551 0.01113,-0.05476 0.0236,-0.0236 0.01128,0.0282 0.0099,0.06189 -0.0031,0.07487 -0.01298,0.01298 -0.02221,-0.01009 -0.02052,-0.05127 z m 13.334922,-1.119792 -0.154412,-0.166015 0.166016,0.154412 c 0.09131,0.08493 0.166015,0.159633 0.166015,0.166015 0,0.02955 -0.03402,-1.9e-5 -0.177619,-0.154412 z m -12.908318,0.03408 c 0,-0.0081 0.03076,-0.03887 0.06836,-0.06836 0.06196,-0.04859 0.06334,-0.04721 0.01475,0.01475 -0.05103,0.06507 -0.08311,0.08576 -0.08311,0.05361 z m 13.455808,-0.385642 -0.233152,-0.244141 0.244141,0.233152 c 0.226786,0.216579 0.262015,0.255129 0.233152,0.255129 -0.006,0 -0.115907,-0.109863 -0.244141,-0.24414 z m -8.403982,-1.074214 c 1.177918,-0.0057 3.093934,-0.0057 4.257812,3e-6 1.163879,0.0057 0.200127,0.01044 -2.141669,0.01044 -2.341797,-2e-6 -3.294062,-0.0047 -2.116143,-0.01045 z"/><path style="fill:teal;fill-opacity:1" id="path262146" d="m 43.772221,51.372787 c 0.0282,-0.01128 0.06189,-0.0099 0.07487,0.0031 0.01298,0.01298 -0.01009,0.02221 -0.05127,0.02052 -0.04551,-0.0019 -0.05476,-0.01113 -0.0236,-0.0236 z M 31.821437,51.018612 c -0.04859,-0.06195 -0.04721,-0.06334 0.01475,-0.01475 0.06507,0.05103 0.08576,0.08311 0.05361,0.08311 -0.0081,0 -0.03887,-0.03076 -0.06836,-0.06836 z M 30.868994,42.78619 c 1e-6,-4.146484 0.0046,-5.836981 0.01016,-3.756659 0.0056,2.080323 0.0056,5.472901 -1e-6,7.539063 -0.0056,2.066162 -0.01016,0.36408 -0.01016,-3.782404 z m 6.120386,7.138677 c 1.518339,-0.0057 4.014433,-0.0057 5.546875,-2e-6 1.532442,0.0057 0.290165,0.01029 -2.760616,0.01029 -3.050782,10e-7 -4.304598,-0.0046 -2.786259,-0.01029 z m 0.0842,-3.320313 c 1.285352,-0.0057 3.377148,-0.0057 4.648438,3e-6 1.271289,0.0057 0.219637,0.01039 -2.337003,0.01039 -2.556641,-10e-7 -3.596787,-0.0047 -2.311435,-0.01039 z m -0.351214,-5.517583 c 0,-0.161133 0.0069,-0.22705 0.01532,-0.146484 0.0084,0.08057 0.0084,0.212402 0,0.292969 -0.0084,0.08057 -0.01532,0.01465 -0.01532,-0.146485 z m 1.620447,0.244166 c 0.543977,-0.0061 1.422884,-0.0061 1.953125,1.3e-5 0.530242,0.0061 0.08517,0.01115 -0.989048,0.01114 -1.074219,-7e-6 -1.508053,-0.005 -0.964077,-0.01116 z m -2.007854,-1.923853 c 0,-0.418946 0.0057,-0.590332 0.01277,-0.38086 0.007,0.209473 0.007,0.552247 0,0.761719 -0.007,0.209473 -0.01277,0.03809 -0.01277,-0.380859 z m -0.945481,0.4012 0.301339,-0.01369 0.0134,-0.369627 0.0134,-0.369627 -0.0022,0.38095 -0.0022,0.38095 -0.3125,0.0024 -0.3125,0.0024 z m -0.34876,-0.576981 c 2.94e-4,-0.107422 0.0079,-0.146731 0.01686,-0.08735 0.009,0.05938 0.0087,0.147268 -5.33e-4,0.195313 -0.0093,0.04804 -0.01662,-5.38e-4 -0.01633,-0.107959 z M 34.41216,38.801815 c 7.96e-4,-0.06445 0.0096,-0.08609 0.01946,-0.04809 0.0099,0.03801 0.0093,0.09074 -0.0014,0.117188 -0.0107,0.02645 -0.0188,-0.0047 -0.01801,-0.0691 z m 0.5105,-0.399124 c 0.05938,-0.009 0.147268,-0.0087 0.195313,5.33e-4 0.04804,0.0093 -5.38e-4,0.01662 -0.107959,0.01633 -0.107422,-2.93e-4 -0.146731,-0.0079 -0.08735,-0.01686 z m 9.508662,-1.837131 c 0.36922,-0.0064 0.984454,-0.0064 1.367187,-2.4e-5 0.382734,0.0064 0.08064,0.01165 -0.671308,0.01166 -0.751953,1.3e-5 -1.065099,-0.0052 -0.695879,-0.01164 z m 1.416432,-0.781323 -0.134615,-0.146484 0.146484,0.134615 c 0.08057,0.07404 0.146484,0.139957 0.146484,0.146485 0,0.02983 -0.03305,0.0017 -0.158353,-0.134616 z m 0.333218,-0.566406 -0.311583,-0.322266 0.322265,0.311584 c 0.299311,0.289389 0.340074,0.332947 0.311584,0.332947 -0.0059,0 -0.150895,-0.145019 -0.322266,-0.322265 z m -1.621512,-0.761719 -0.213509,-0.224609 0.224609,0.213509 c 0.123536,0.11743 0.22461,0.218504 0.22461,0.224609 0,0.029 -0.03735,-0.0048 -0.23571,-0.213509 z m -0.370675,-1.269531 -0.311584,-0.322266 0.322266,0.311584 c 0.29931,0.289389 0.340074,0.332947 0.311583,0.332947 -0.0059,0 -0.150894,-0.145019 -0.322265,-0.322265 z M 34.123783,32.03685 c 0.0282,-0.01128 0.06189,-0.0099 0.07487,0.0031 0.01298,0.01298 -0.01009,0.02221 -0.05127,0.02052 -0.0455,-0.0019 -0.05476,-0.01113 -0.0236,-0.0236 z"/><path style="fill:teal;fill-opacity:1" id="path262145" d="m 44.990482,51.497128 c 0.05046,-0.05371 0.100533,-0.09766 0.111275,-0.09766 0.01074,0 -0.02175,0.04395 -0.07221,0.09766 -0.05046,0.05371 -0.100533,0.09766 -0.111275,0.09766 -0.01074,0 0.02175,-0.04395 0.07221,-0.09766 z m -5.429687,-0.917969 -5.332031,-0.01995 5.31996,-0.0096 c 3.514847,-0.0063 5.328152,0.0037 5.344102,0.02951 0.01328,0.02148 0.01871,0.03476 0.01207,0.02951 -0.0066,-0.0053 -2.411485,-0.01853 -5.344102,-0.02951 z m -8.076414,-2.885997 -0.0095,-2.593027 -0.292968,0.0188 -0.292969,0.0188 V 40.07257 c 0,-5.466664 -0.0085,-5.225886 0.197783,-5.63083 0.193029,-0.379002 0.732187,-0.783247 1.192466,-0.894075 0.14311,-0.03446 0.164966,-0.05581 0.209478,-0.204661 0.203796,-0.681503 0.806576,-1.186831 1.525273,-1.278679 0.409111,-0.05228 8.858719,-0.05236 9.008687,-8e-5 0.113518,0.03957 3.929254,3.900664 4.027038,4.074905 0.03331,0.05936 0.04786,0.355074 0.04883,0.992743 l 0.0014,0.908203 h 0.481857 0.481857 l 0.445878,0.285364 c 0.85719,0.548605 1.392651,0.920626 1.417212,0.984632 0.08781,0.228836 -0.0059,0.319761 -0.990866,0.96175 l -0.800781,0.52192 -0.517187,0.0129 -0.517186,0.01291 -0.01016,1.78409 -0.01016,1.784091 -0.302734,0.01141 -0.302735,0.01141 v -1.798518 -1.798518 h -4.550781 -4.550781 v 0.273437 0.273438 h 2.008883 2.008884 l 0.08096,0.102924 c 0.110538,0.140526 0.103151,0.2923 -0.01985,0.407845 l -0.100812,0.0947 h -2.076923 c -2.307344,0 -2.221312,0.0094 -2.41564,-0.263083 -0.07721,-0.108256 -0.093,-0.185133 -0.104396,-0.508402 l -0.01343,-0.380859 h -0.349157 c -0.439955,0 -0.603214,-0.06063 -0.649984,-0.241382 l -0.03356,-0.129712 -0.552204,-0.01083 c -0.754193,-0.01479 -0.712458,0.0451 -0.712458,-1.022232 0,-0.758829 0.0048,-0.81285 0.07965,-0.89317 0.09211,-0.09887 0.06794,-0.09586 0.691727,-0.08605 0.433778,0.0068 0.480568,8.24e-4 0.501589,-0.06432 0.05602,-0.173582 0.113121,-0.246568 0.222842,-0.284817 0.07958,-0.02774 1.795936,-0.04093 5.326431,-0.04093 h 5.209014 v -0.742187 -0.742188 h -1.459932 c -1.601378,0 -1.650042,-0.0059 -1.939965,-0.235531 -0.08572,-0.0679 -0.19784,-0.215412 -0.260143,-0.342285 l -0.109491,-0.222965 -0.01145,-1.552734 -0.01145,-1.552735 h -4.234676 c -2.92649,0 -4.298623,0.01327 -4.441677,0.04294 -0.273693,0.05678 -0.495725,0.18884 -0.6916,0.411366 -0.295859,0.336114 -0.27712,-0.08666 -0.27712,6.252002 v 5.676504 l -0.107422,3.39e-4 c -0.05908,1.87e-4 -0.199707,0.01142 -0.3125,0.02497 l -0.205078,0.02463 v -5.454659 c 0,-4.885266 -0.0063,-5.45466 -0.06015,-5.45466 -0.192158,0 -0.577643,0.318051 -0.733841,0.605469 l -0.08492,0.15625 -0.01977,7.675781 c -0.01087,4.221679 -0.02406,6.508919 -0.0293,5.082753 z m 16.201414,-8.266347 v -0.761719 h -5.683594 -5.683594 v 0.735677 c 0,0.404623 0.01172,0.747396 0.02604,0.761719 0.01432,0.01432 2.57194,0.02604 5.683594,0.02604 h 5.657552 z m 1.087648,0.196564 0.286866,-0.185557 -0.34546,-0.230031 c -0.190003,-0.126516 -0.358644,-0.230067 -0.374757,-0.230112 -0.01611,-4.6e-5 -0.0293,0.212876 -0.0293,0.47316 v 0.473242 l 0.08789,-0.05757 c 0.04834,-0.03167 0.216981,-0.141073 0.374758,-0.24313 z m -13.049124,-0.186798 0.01118,-0.38086 h -0.358626 -0.358625 l 0.0249,0.263672 c 0.0137,0.14502 0.02503,0.321512 0.02518,0.392205 l 2.77e-4,0.128533 0.322266,-0.01135 0.322266,-0.01135 z m 9.674776,-4.140768 c -0.342901,-0.3492 -0.946677,-0.964434 -1.341725,-1.367188 -0.395048,-0.402753 -0.725339,-0.732279 -0.733979,-0.732279 -0.0086,0 -0.01061,0.563962 -0.0044,1.25325 l 0.01132,1.253249 0.127569,0.113938 0.12757,0.113938 h 1.218543 1.218543 z m 1.056231,14.814596 c 0.03889,-0.04297 0.07949,-0.07813 0.09023,-0.07813 0.01074,0 -0.01228,0.03516 -0.05117,0.07813 -0.03889,0.04297 -0.07949,0.07813 -0.09023,0.07813 -0.01074,0 0.01228,-0.03516 0.05117,-0.07813 z M 32.837062,49.924862 c -0.04859,-0.06195 -0.04721,-0.06334 0.01475,-0.01475 0.0376,0.02949 0.06836,0.06025 0.06836,0.06836 0,0.03215 -0.03208,0.01146 -0.08311,-0.05361 z m 0.507813,-0.351563 c -0.04859,-0.06195 -0.04721,-0.06334 0.01475,-0.01475 0.0376,0.02949 0.06836,0.06025 0.06836,0.06836 0,0.03215 -0.03208,0.01146 -0.08311,-0.05361 z m 12.739357,0.05361 c 0,-0.0081 0.03076,-0.03887 0.06836,-0.06836 0.06196,-0.04859 0.06334,-0.04721 0.01475,0.01475 -0.05103,0.06507 -0.08311,0.08576 -0.08311,0.05361 z m -9.033203,-3.647356 c 1.272949,-0.0057 3.355957,-0.0057 4.628906,0 1.27295,0.0057 0.231446,0.01039 -2.314453,0.01039 -2.545898,0 -3.587402,-0.0047 -2.314453,-0.01039 z m -2.525257,-1.041818 c -0.131222,-0.164991 -0.0665,-0.422911 0.122666,-0.488855 0.0818,-0.02852 1.573819,-0.0416 4.744344,-0.0416 4.069325,0 4.638864,0.0072 4.740265,0.0596 0.115443,0.0597 0.159991,0.11137 0.06439,0.07468 -0.04691,-0.018 -9.286417,0.393661 -9.529958,0.424602 -0.05949,0.0076 -0.123256,-0.0052 -0.141703,-0.02843 z m 0.08663,-1.513973 c -0.130318,-0.06364 -0.189351,-0.239738 -0.129115,-0.385161 0.02704,-0.06527 0.08075,-0.135586 0.119359,-0.15625 0.04302,-0.02303 1.128933,-0.03757 2.804964,-0.03757 h 2.734765 l 0.106345,0.09147 c 0.134599,0.115777 0.143725,0.305167 0.02064,0.428274 l -0.08571,0.08572 -2.74307,0.0075 c -1.874116,0.0052 -2.770031,-0.0056 -2.82818,-0.03403 z"/><path style="fill:teal;fill-opacity:1" id="path262144" d="m 32.510014,51.985045 c -0.735009,-0.09367 -1.338982,-0.584543 -1.548838,-1.258813 -0.06733,-0.216325 -0.07226,-0.414101 -0.07226,-2.899904 v -2.667745 l 0.08789,-0.02355 c 0.04834,-0.01295 0.179386,-0.02379 0.291213,-0.02409 l 0.203321,-5.33e-4 0.01152,2.685547 0.01152,2.685547 0.108987,0.221937 c 0.128256,0.261173 0.312906,0.434661 0.611886,0.574894 l 0.216627,0.101606 5.703125,0.01162 c 6.339596,0.01292 5.979261,0.02696 6.356442,-0.247668 0.178094,-0.129669 0.438362,-0.504877 0.39683,-0.572078 -0.01078,-0.01744 -2.473212,-0.03172 -5.472069,-0.03172 -5.350397,0 -5.4573,-0.0015 -5.710586,-0.07854 -0.445625,-0.135591 -0.898812,-0.507659 -1.100951,-0.903884 -0.183159,-0.359023 -0.192323,-0.47985 -0.192323,-2.535969 v -1.939477 l 0.205078,-0.02463 c 0.112793,-0.01355 0.253418,-0.02479 0.3125,-0.02497 l 0.107422,-3.39e-4 3.82e-4,2.001953 3.82e-4,2.001953 0.0928,0.199304 c 0.172668,0.370824 0.474354,0.597144 0.901176,0.676046 0.323295,0.05976 11.124722,0.05976 11.448017,0 0.426821,-0.0789 0.728508,-0.305222 0.901176,-0.676046 l 0.0928,-0.199304 3.82e-4,-2.311479 3.81e-4,-2.311478 0.312592,-0.01274 0.312592,-0.01274 -9.2e-5,2.250527 c -5.5e-5,1.342232 -0.01594,2.335448 -0.03936,2.460938 -0.120879,0.647692 -0.715302,1.261039 -1.349917,1.392892 -0.14584,0.0303 -0.15639,0.04323 -0.256365,0.314068 -0.203106,0.550237 -0.635715,0.952324 -1.219691,1.133637 -0.180015,0.05589 -0.794618,0.06312 -5.845696,0.06878 -3.104492,0.0035 -5.75,-0.0071 -5.878906,-0.02355 z m 2.1875,-3.816728 c -0.272478,-0.0678 -0.322017,-0.439676 -0.07365,-0.552841 0.07026,-0.03202 1.383708,-0.04413 4.784291,-0.04413 h 4.687438 l 0.09588,0.09588 c 0.121432,0.121432 0.12199,0.260032 0.0016,0.399988 l -0.09427,0.1096 -4.661589,0.0055 c -2.563875,0.003 -4.696747,-0.0033 -4.739715,-0.01397 z m -0.08871,-1.599678 c -0.02731,-0.01099 -0.07703,-0.07293 -0.110499,-0.137646 -0.05015,-0.09698 -0.0525,-0.13783 -0.01335,-0.232338 0.02612,-0.06307 0.07909,-0.131576 0.117697,-0.152239 0.04383,-0.02346 1.840164,-0.03757 4.781574,-0.03757 h 4.711375 l 0.09588,0.09588 c 0.05273,0.05273 0.09588,0.141424 0.09588,0.197088 0,0.05566 -0.04315,0.144354 -0.09588,0.197088 l -0.09588,0.09588 -4.718572,-0.0031 c -2.595215,-0.0017 -4.740915,-0.01207 -4.768223,-0.02306 z m 0.03012,-1.575418 c -0.04459,-0.02882 -0.02885,-0.03801 0.0659,-0.03846 0.06847,-3.29e-4 2.208918,-0.09728 4.756551,-0.215442 2.547633,-0.118164 4.658492,-0.214844 4.690799,-0.214844 0.03231,0 0.0784,0.04315 0.102432,0.0959 0.05754,0.126297 -0.01511,0.307467 -0.147502,0.367787 -0.125846,0.05734 -9.37963,0.06229 -9.468178,0.0051 z"/></g></g></svg>